<svg width="740" height="740" viewBox="0 0 740 740" fill="none" xmlns="http://www.w3.org/2000/svg">
<path d="M514.636 150.975C514.636 150.975 429.345 103.261 331.458 139.484C233.571 175.707 171.209 270.056 118.66 345.192C66.1116 420.327 74.1687 507.214 135.741 556.678C197.315 606.143 253.102 558.149 349.008 571.662C444.915 585.174 468.257 603.178 556.646 562.751C645.034 522.323 681.055 397.47 634.64 292.663C588.225 187.855 514.636 150.975 514.636 150.975Z" fill="#00A1DE"/>
<path opacity="0.8" d="M514.636 150.975C514.636 150.975 429.345 103.261 331.458 139.484C233.571 175.707 171.209 270.056 118.66 345.192C66.1116 420.327 74.1687 507.214 135.741 556.678C197.315 606.143 253.102 558.149 349.008 571.662C444.915 585.174 468.257 603.178 556.646 562.751C645.034 522.323 681.055 397.47 634.64 292.663C588.225 187.855 514.636 150.975 514.636 150.975Z" fill="white"/>
<path d="M592.259 283.729C584.961 279.75 581.644 283.066 578.991 279.75C576.337 276.431 586.289 267.807 566.386 259.183C566.386 259.183 565.06 240.608 537.859 239.945C510.659 239.282 517.957 258.52 510.659 263.165C503.361 267.809 501.372 260.511 494.074 265.155C486.776 269.798 490.093 279.087 484.123 280.414C478.152 281.74 470.192 274.444 462.894 279.087C455.596 283.731 455.596 287.71 452.279 287.71C448.962 287.71 442.328 285.057 438.348 287.71C434.367 290.364 429.724 293.681 429.724 293.681H597.568C597.568 293.681 599.557 287.71 592.259 283.729Z" fill="white"/>
<path opacity="0.5" d="M592.259 283.729C584.961 279.75 581.644 283.066 578.991 279.75C576.337 276.431 586.289 267.807 566.386 259.183C566.386 259.183 565.06 240.608 537.859 239.945C510.659 239.282 517.957 258.52 510.659 263.165C503.361 267.809 501.372 260.511 494.074 265.155C486.776 269.798 490.093 279.087 484.123 280.414C478.152 281.74 470.192 274.444 462.894 279.087C455.596 283.731 455.596 287.71 452.279 287.71C448.962 287.71 442.328 285.057 438.348 287.71C434.367 290.364 429.724 293.681 429.724 293.681H597.568C597.568 293.681 599.557 287.71 592.259 283.729Z" fill="white"/>
<path d="M338.141 198.873C333.815 196.514 331.85 198.48 330.278 196.514C328.705 194.549 334.603 189.437 322.807 184.325C322.807 184.325 322.021 173.315 305.9 172.923C289.78 172.529 294.104 183.933 289.78 186.686C285.455 189.438 284.275 185.112 279.949 187.865C275.623 190.618 277.59 196.122 274.052 196.91C270.513 197.695 265.795 193.371 261.469 196.124C257.143 198.876 257.144 201.236 255.177 201.236C253.212 201.236 249.279 199.662 246.92 201.236C244.561 202.809 241.808 204.774 241.808 204.774H341.288C341.288 204.771 342.466 201.233 338.141 198.873Z" fill="white"/>
<path opacity="0.5" d="M338.141 198.873C333.815 196.514 331.85 198.48 330.278 196.514C328.705 194.549 334.603 189.437 322.807 184.325C322.807 184.325 322.021 173.315 305.9 172.923C289.78 172.529 294.104 183.933 289.78 186.686C285.455 189.438 284.275 185.112 279.949 187.865C275.623 190.618 277.59 196.122 274.052 196.91C270.513 197.695 265.795 193.371 261.469 196.124C257.143 198.876 257.144 201.236 255.177 201.236C253.212 201.236 249.279 199.662 246.92 201.236C244.561 202.809 241.808 204.774 241.808 204.774H341.288C341.288 204.771 342.466 201.233 338.141 198.873Z" fill="white"/>
<path d="M398.767 526.728C386.332 519.946 380.681 525.597 376.158 519.946C371.637 514.294 388.593 499.598 354.681 484.903C354.681 484.903 352.421 453.251 306.073 452.121C259.727 450.992 272.162 483.774 259.727 491.686C247.292 499.599 243.901 487.164 231.466 495.078C219.031 502.99 224.683 518.816 214.511 521.077C204.338 523.337 190.772 510.903 178.339 518.815C165.905 526.728 165.904 533.51 160.251 533.51C154.599 533.51 143.295 528.989 136.514 533.51C129.731 538.033 121.819 543.684 121.819 543.684H407.813C407.813 543.684 411.202 533.509 398.767 526.728Z" fill="white"/>
<path opacity="0.5" d="M398.767 526.728C386.332 519.946 380.681 525.597 376.158 519.946C371.637 514.294 388.593 499.598 354.681 484.903C354.681 484.903 352.421 453.251 306.073 452.121C259.727 450.992 272.162 483.774 259.727 491.686C247.292 499.599 243.901 487.164 231.466 495.078C219.031 502.99 224.683 518.816 214.511 521.077C204.338 523.337 190.772 510.903 178.339 518.815C165.905 526.728 165.904 533.51 160.251 533.51C154.599 533.51 143.295 528.989 136.514 533.51C129.731 538.033 121.819 543.684 121.819 543.684H407.813C407.813 543.684 411.202 533.509 398.767 526.728Z" fill="white"/>
<path d="M189.841 478.528C189.841 478.528 182.53 472.116 174.963 469.936C167.395 467.755 158.712 467.689 151.145 465.636C143.578 463.583 139.178 461.855 139.178 461.855L138.793 468.652L189.585 482.376L224.344 472.756L227.808 465.703C227.808 465.703 223.575 467.883 216.007 469.68C208.44 471.475 199.975 471.475 195.228 473.271C190.482 475.065 189.841 478.528 189.841 478.528Z" fill="white" stroke="#263238" stroke-miterlimit="10" stroke-linecap="round" stroke-linejoin="round"/>
<path d="M138.023 463.394C138.023 463.394 150.922 467.651 168.446 469.822C180.985 471.376 189.841 478.528 189.841 478.528C189.841 478.528 196.896 473.526 206.9 473.141C216.904 472.757 228.32 468.78 228.32 468.78L226.14 473.269L188.815 480.58L137.254 467.112L138.023 463.394Z" fill="white" stroke="#263238" stroke-miterlimit="10" stroke-linecap="round" stroke-linejoin="round"/>
<path d="M136.611 464.933C136.611 464.933 148.397 469.703 161.19 470.659C174.914 471.685 189.455 478.528 189.455 478.528C189.455 478.528 198.049 473.911 207.54 473.911C217.032 473.911 225.753 471.858 228.447 471.088C228.447 471.088 227.677 473.141 229.088 475.321L189.326 483.787L136.354 468.395L136.611 464.933Z" fill="white" stroke="#263238" stroke-miterlimit="10" stroke-linecap="round" stroke-linejoin="round"/>
<path d="M135.971 467.754L187.66 480.708V482.504L192.021 482.632V480.58L230.244 474.552C230.244 474.552 231.912 474.167 230.5 476.091C229.089 478.015 204.462 499.435 204.462 499.435L177.143 502.257L135.713 493.151L135.971 467.754Z" fill="#00A1DE"/>
<mask id="mask0_1_4075" style="mask-type:luminance" maskUnits="userSpaceOnUse" x="135" y="467" width="97" height="36">
<path d="M135.971 467.754L187.66 480.708V482.504L192.021 482.632V480.58L230.244 474.552C230.244 474.552 231.912 474.167 230.5 476.091C229.089 478.015 204.462 499.435 204.462 499.435L177.143 502.257L135.713 493.151L135.971 467.754Z" fill="white"/>
</mask>
<g mask="url(#mask0_1_4075)">
<path opacity="0.3" d="M187.661 482.505V480.708L135.971 467.754L135.715 493.151L177.143 502.257L177.883 502.18L188.82 482.538L187.661 482.505Z" fill="black"/>
</g>
<path d="M135.971 467.754L187.66 480.708V482.504L192.021 482.632V480.58L230.244 474.552C230.244 474.552 231.912 474.167 230.5 476.091C229.089 478.015 204.462 499.435 204.462 499.435L177.143 502.257L135.713 493.151L135.971 467.754Z" stroke="#263238" stroke-miterlimit="10" stroke-linecap="round" stroke-linejoin="round"/>
<path d="M187.661 482.505L176.244 502.257L178.426 502.384L192.021 482.632L187.661 482.505Z" fill="#00A1DE" stroke="#263238" stroke-miterlimit="10" stroke-linecap="round" stroke-linejoin="round"/>
<path d="M185.835 602.873C185.835 602.873 183.348 608.086 180.024 610.478C176.7 612.869 172.476 613.97 169.131 616.276C165.787 618.581 163.931 620.283 163.931 620.283L162.599 615.748L185.062 600.313L203.635 602.563L206.51 606.896C206.51 606.896 204.079 605.941 200.086 605.653C196.093 605.364 191.963 606.396 189.347 605.762C186.73 605.129 185.835 602.873 185.835 602.873Z" fill="white" stroke="#263238" stroke-miterlimit="10" stroke-linecap="round" stroke-linejoin="round"/>
<path d="M163.109 619.384C163.109 619.384 168.684 614.946 176.866 611.346C182.721 608.771 185.836 602.872 185.836 602.872C185.836 602.872 190.119 605.385 195.063 604.426C200.007 603.467 206.244 604.756 206.244 604.756L204.425 601.996L184.99 601.614L162.107 616.971L163.109 619.384Z" fill="white" stroke="#263238" stroke-miterlimit="10" stroke-linecap="round" stroke-linejoin="round"/>
<path d="M162.162 618.52C162.162 618.52 167.108 613.87 173.187 611.668C179.707 609.304 185.648 602.921 185.648 602.921C185.648 602.921 190.617 604.987 195.246 603.831C199.875 602.675 204.474 602.996 205.918 603.187C205.918 603.187 205.198 601.898 205.519 600.257L184.701 599.394L161.455 616.219L162.162 618.52Z" fill="white" stroke="#263238" stroke-miterlimit="10" stroke-linecap="round" stroke-linejoin="round"/>
<path d="M161.375 616.695L184.405 601.669L184.103 600.458L186.209 599.841L186.554 601.225L206.211 600.633C206.211 600.633 207.089 600.689 206.078 599.564C205.066 598.439 189.45 587.002 189.45 587.002L175.651 588.427L156.978 599.61L161.375 616.695Z" fill="#00A1DE"/>
<mask id="mask1_1_4075" style="mask-type:luminance" maskUnits="userSpaceOnUse" x="156" y="587" width="51" height="30">
<path d="M161.375 616.695L184.405 601.669L184.103 600.458L186.209 599.841L186.554 601.225L206.211 600.633C206.211 600.633 207.089 600.689 206.078 599.564C205.066 598.439 189.45 587.002 189.45 587.002L175.651 588.427L156.978 599.61L161.375 616.695Z" fill="white"/>
</mask>
<g mask="url(#mask1_1_4075)">
<path opacity="0.3" d="M184.103 600.46L184.405 601.669L161.375 616.695L156.975 599.61L175.648 588.427L176.022 588.389L184.663 600.295L184.103 600.46Z" fill="black"/>
</g>
<path d="M161.375 616.695L184.405 601.669L184.103 600.458L186.209 599.841L186.554 601.225L206.211 600.633C206.211 600.633 207.089 600.689 206.078 599.564C205.066 598.439 189.45 587.002 189.45 587.002L175.651 588.427L156.978 599.61L161.375 616.695Z" stroke="#263238" stroke-miterlimit="10" stroke-linecap="round" stroke-linejoin="round"/>
<path d="M184.103 600.46L175.211 588.537L176.253 588.185L186.208 599.841L184.103 600.46Z" fill="#00A1DE" stroke="#263238" stroke-miterlimit="10" stroke-linecap="round" stroke-linejoin="round"/>
<path d="M530.171 443.578L571.958 485.893L482.718 511.047L476.812 468.614L530.171 443.578Z" fill="#00A1DE" stroke="#263238" stroke-miterlimit="10" stroke-linecap="round" stroke-linejoin="round"/>
<path d="M567.146 492.017L474.843 519.14L482.28 470.363L528.869 449.584L567.146 492.017Z" fill="white" stroke="#263238" stroke-miterlimit="10" stroke-linecap="round" stroke-linejoin="round"/>
<path d="M531.057 452.209L565.397 496.611L478.78 521.765L488.843 468.395L531.057 452.209Z" fill="white"/>
<mask id="mask2_1_4075" style="mask-type:luminance" maskUnits="userSpaceOnUse" x="478" y="452" width="88" height="70">
<path d="M531.057 452.209L565.397 496.611L478.78 521.765L488.843 468.395L531.057 452.209Z" fill="white"/>
</mask>
<g mask="url(#mask2_1_4075)">
<path opacity="0.17" d="M531.057 452.209L565.397 496.611L478.78 521.765L488.843 468.395L531.057 452.209Z" fill="black"/>
</g>
<path d="M531.057 452.209L565.397 496.611L478.78 521.765L488.843 468.395L531.057 452.209Z" stroke="#263238" stroke-miterlimit="10" stroke-linecap="round" stroke-linejoin="round"/>
<path d="M531.057 452.209L515.308 506.891L453.845 525.483L477.469 475.176L531.057 452.209Z" fill="white" stroke="#263238" stroke-miterlimit="10" stroke-linecap="round" stroke-linejoin="round"/>
<path d="M510.933 502.516L451.659 522.421L449.908 514.109L504.809 494.424L510.933 502.516Z" fill="white" stroke="#263238" stroke-miterlimit="10" stroke-linecap="round" stroke-linejoin="round"/>
<path d="M529.525 444.772L568.896 485.675L567.146 492.017L531.057 452.209L510.933 502.516L504.809 494.424L529.525 444.772Z" fill="white" stroke="#263238" stroke-miterlimit="10" stroke-linecap="round" stroke-linejoin="round"/>
<path d="M530.171 443.578L505.028 495.955L447.065 515.639L476.812 468.614L530.171 443.578Z" fill="#00A1DE"/>
<mask id="mask3_1_4075" style="mask-type:luminance" maskUnits="userSpaceOnUse" x="447" y="443" width="84" height="73">
<path d="M530.171 443.578L505.028 495.955L447.065 515.639L476.812 468.614L530.171 443.578Z" fill="white"/>
</mask>
<g mask="url(#mask3_1_4075)">
<path opacity="0.3" d="M530.171 443.578L505.028 495.955L447.065 515.639L476.812 468.614L530.171 443.578Z" fill="black"/>
</g>
<path d="M530.171 443.578L505.028 495.955L447.065 515.639L476.812 468.614L530.171 443.578Z" stroke="#263238" stroke-miterlimit="10" stroke-linecap="round" stroke-linejoin="round"/>
<path d="M474.418 473.431L521.055 452.159" stroke="#263238" stroke-miterlimit="10" stroke-linecap="round" stroke-linejoin="round"/>
<path d="M335.987 595.676L378.785 543.012L290.491 538.866L283.463 583.107L335.987 595.676Z" fill="#00A1DE" stroke="#263238" stroke-miterlimit="10" stroke-linecap="round" stroke-linejoin="round"/>
<path d="M374.153 537.975L282.859 532.57L288.961 580.038L334.85 589.922L374.153 537.975Z" fill="white" stroke="#263238" stroke-miterlimit="10" stroke-linecap="round" stroke-linejoin="round"/>
<path d="M337.101 586.752L372.532 533.754L286.855 528.984L295.451 580.463L337.101 586.752Z" fill="white"/>
<mask id="mask4_1_4075" style="mask-type:luminance" maskUnits="userSpaceOnUse" x="286" y="528" width="87" height="59">
<path d="M337.101 586.752L372.532 533.754L286.855 528.984L295.451 580.463L337.101 586.752Z" fill="white"/>
</mask>
<g mask="url(#mask4_1_4075)">
<path opacity="0.17" d="M337.101 586.752L372.532 533.754L286.855 528.984L295.451 580.463L337.101 586.752Z" fill="black"/>
</g>
<path d="M337.101 586.752L372.532 533.754L286.855 528.984L295.451 580.463L337.101 586.752Z" stroke="#263238" stroke-miterlimit="10" stroke-linecap="round" stroke-linejoin="round"/>
<path d="M337.101 586.752L322.871 535.303L262.095 531.167L284.293 576.327L337.101 586.752Z" fill="white" stroke="#263238" stroke-miterlimit="10" stroke-linecap="round" stroke-linejoin="round"/>
<path d="M318.392 540.759L259.832 534.779L257.863 543.586L312.068 550.387L318.392 540.759Z" fill="white" stroke="#263238" stroke-miterlimit="10" stroke-linecap="round" stroke-linejoin="round"/>
<path d="M335.375 594.624L375.728 543.962L374.153 537.975L337.101 586.752L318.392 540.759L312.068 550.387L335.375 594.624Z" fill="white" stroke="#263238" stroke-miterlimit="10" stroke-linecap="round" stroke-linejoin="round"/>
<path d="M335.987 595.676L312.329 548.79L255.071 542.717L283.463 583.106L335.987 595.676Z" fill="#00A1DE"/>
<mask id="mask5_1_4075" style="mask-type:luminance" maskUnits="userSpaceOnUse" x="255" y="542" width="81" height="54">
<path d="M335.987 595.676L312.329 548.79L255.071 542.717L283.463 583.106L335.987 595.676Z" fill="white"/>
</mask>
<g mask="url(#mask5_1_4075)">
<path opacity="0.3" d="M335.987 595.676L312.329 548.79L255.071 542.717L283.463 583.106L335.987 595.676Z" fill="black"/>
</g>
<path d="M335.987 595.676L312.329 548.79L255.071 542.717L283.463 583.106L335.987 595.676Z" stroke="#263238" stroke-miterlimit="10" stroke-linecap="round" stroke-linejoin="round"/>
<path d="M279.097 577.271L325.733 587.089" stroke="#263238" stroke-miterlimit="10" stroke-linecap="round" stroke-linejoin="round"/>
<path d="M370.69 241.573C370.69 241.573 351.303 250.943 343.549 262.252C335.796 273.56 338.057 294.561 350.011 301.347C361.967 308.132 403.646 333.012 433.048 329.457C462.45 325.902 457.927 295.855 443.065 283.9C428.203 271.944 408.169 261.282 408.169 261.282C408.169 261.282 407.2 254.82 405.908 252.559C404.614 250.298 389.752 235.758 370.69 241.573Z" fill="#263238" stroke="#263238" stroke-miterlimit="10" stroke-linecap="round" stroke-linejoin="round"/>
<path d="M449.403 291.008C405.39 277.543 376.4 301.655 367.299 310.892C385.513 320.346 412.324 331.963 433.047 329.457C457.653 326.482 458.492 304.96 449.403 291.008Z" fill="white" stroke="#263238" stroke-miterlimit="10" stroke-linecap="round" stroke-linejoin="round"/>
<path d="M419.478 287.453C419.478 287.453 445.326 308.132 436.279 328.81" stroke="#263238" stroke-miterlimit="10" stroke-linecap="round" stroke-linejoin="round"/>
<path d="M334.61 232.547L324.269 280.869H332.605L353.137 242.8C353.137 242.8 349.119 230.59 334.61 232.547Z" fill="white" stroke="#263238" stroke-miterlimit="10" stroke-linecap="round" stroke-linejoin="round"/>
<path d="M464.828 209.108C456.349 198.714 445.134 189.14 424.618 187.498C424.618 187.498 407.112 186.951 383.314 197.072C364.716 204.981 344.782 222.246 334.609 232.547C343.766 234.873 349.206 238.625 353.135 242.8C357.199 238.934 360.731 235.576 363.344 233.452C372.097 226.341 384.954 220.323 384.954 220.323C384.954 220.323 371.003 239.47 368.268 244.394C365.533 249.318 367.447 257.249 381.945 259.438C396.442 261.627 399.998 258.89 405.742 255.608C411.486 252.325 418.597 249.316 421.334 249.316C424.069 249.316 429.54 249.864 436.652 244.94C443.763 240.016 446.772 226.066 449.235 224.972C450.931 224.219 465.854 243.698 477.486 258.315C477.822 258.143 478.145 257.98 478.503 257.797C483.554 255.204 487.514 249.885 490.214 245.208C480.812 231.448 470.307 215.824 464.828 209.108Z" fill="#00A1DE" stroke="#263238" stroke-miterlimit="10" stroke-linecap="round" stroke-linejoin="round"/>
<path d="M415.796 196.695C415.796 196.695 409.984 210.642 421.608 215.873" stroke="#263238" stroke-miterlimit="10" stroke-linecap="round" stroke-linejoin="round"/>
<path d="M384.957 220.322L397.578 216.598" stroke="#263238" stroke-miterlimit="10" stroke-linecap="round" stroke-linejoin="round"/>
<path d="M384.762 244.672C384.762 244.672 392.696 251.69 411.31 243.756" stroke="#263238" stroke-miterlimit="10" stroke-linecap="round" stroke-linejoin="round"/>
<path d="M457.388 219.65C452.81 220.26 449.238 224.972 449.238 224.972C449.238 224.972 458.304 223.006 465.322 223.006" stroke="#263238" stroke-miterlimit="10" stroke-linecap="round" stroke-linejoin="round"/>
<path d="M385.373 221.481C385.373 221.481 393.917 221.481 402.156 221.176" stroke="#263238" stroke-miterlimit="10" stroke-linecap="round" stroke-linejoin="round"/>
<path d="M389.949 241.009C389.949 241.009 390.865 246.501 402.766 245.892" stroke="#263238" stroke-miterlimit="10" stroke-linecap="round" stroke-linejoin="round"/>
<path d="M421.609 192.148C421.609 192.148 419.694 201.996 421.062 207.193C422.429 212.39 427.353 218.408 430.909 212.117C434.466 205.825 436.38 198.714 436.38 195.431C436.38 192.148 424.072 185.857 421.609 192.148Z" fill="white" stroke="#263238" stroke-miterlimit="10" stroke-linecap="round" stroke-linejoin="round"/>
<path d="M449.236 179.839C449.236 179.839 456.895 178.198 463.461 169.719C470.026 161.24 461.545 160.145 458.81 151.94C456.075 143.735 465.716 146.468 451.766 132.244C437.815 118.02 415.112 122.944 404.444 127.594C393.776 132.244 394.05 147.836 386.391 148.929C378.732 150.023 375.449 142.638 366.149 142.638C356.849 142.638 347.002 152.484 350.831 160.691C354.66 168.898 362.047 165.341 362.593 163.974C363.14 162.606 358.764 164.247 358.49 160.143C358.216 156.041 368.334 158.228 371.344 163.697C373.789 168.138 369.309 174.449 369.457 179.107C369.754 188.468 381.218 194.444 388.567 195.73C398.497 197.468 410.579 196.859 419.586 191.921C430.63 185.864 425.438 173.275 433.644 169.993C441.851 166.71 445.954 171.634 445.954 171.634L449.236 179.839Z" fill="#263238" stroke="#263238" stroke-miterlimit="10" stroke-linecap="round" stroke-linejoin="round"/>
<path d="M365.634 147.728C361.45 146.106 358.07 147.864 357.006 148.93" stroke="white" stroke-miterlimit="10" stroke-linecap="round" stroke-linejoin="round"/>
<path d="M438.634 155.459C438.634 155.459 438.634 139.133 427.205 135.868C415.776 132.604 402.717 147.297 396.186 156.548C389.656 165.8 379.86 163.623 372.785 153.827C372.044 152.801 371.302 151.918 370.568 151.161" stroke="white" stroke-miterlimit="10" stroke-linecap="round" stroke-linejoin="round"/>
<path d="M373.875 185.934C379.861 189.743 384.214 190.831 392.921 188.111C401.628 185.389 400.54 171.24 408.159 163.623C415.778 156.004 429.382 158.726 429.382 158.726C429.382 158.726 414.144 150.562 402.172 159.27C390.201 167.977 391.288 182.67 380.404 185.391" stroke="white" stroke-miterlimit="10" stroke-linecap="round" stroke-linejoin="round"/>
<path d="M446.253 157.092C446.253 157.092 456.592 154.37 456.047 145.12" stroke="white" stroke-miterlimit="10" stroke-linecap="round" stroke-linejoin="round"/>
<path d="M360.996 261.929C360.996 261.929 389.105 265.482 403.322 275.176" stroke="white" stroke-miterlimit="10" stroke-linecap="round" stroke-linejoin="round"/>
<path d="M440.318 160.613C440.318 160.613 435.12 158.697 430.47 163.621C425.82 168.545 425.985 171.085 422.155 174.094C418.326 177.103 415.318 175.461 413.676 174.642C412.035 173.82 410.12 174.368 409.574 178.198C409.026 182.027 414.224 185.036 415.044 185.036C415.864 185.036 417.505 185.309 417.505 185.309C417.505 185.309 417.505 192.147 422.155 196.251C426.805 200.354 436.106 206.919 442.397 205.551C448.689 204.184 451.15 189.687 451.15 182.301C451.15 174.915 448.689 164.795 446.774 160.419C444.86 156.042 440.318 160.613 440.318 160.613Z" fill="white" stroke="#263238" stroke-miterlimit="10" stroke-linecap="round" stroke-linejoin="round"/>
<path d="M435.111 177.235C435.111 178.752 434.565 179.981 433.89 179.981C433.215 179.981 432.669 178.752 432.669 177.235C432.669 175.718 433.215 174.488 433.89 174.488C434.565 174.488 435.111 175.718 435.111 177.235Z" fill="#263238"/>
<path d="M444.876 176.318C444.876 177.835 444.33 179.065 443.655 179.065C442.98 179.065 442.434 177.835 442.434 176.318C442.434 174.801 442.98 173.572 443.655 173.572C444.33 173.573 444.876 174.801 444.876 176.318Z" fill="#263238"/>
<path d="M429.314 171.741C429.314 171.741 431.145 168.994 435.722 170.215" stroke="#263238" stroke-miterlimit="10" stroke-linecap="round" stroke-linejoin="round"/>
<path d="M440.91 170.216C440.91 170.216 443.962 166.86 446.708 170.216" stroke="#263238" stroke-miterlimit="10" stroke-linecap="round" stroke-linejoin="round"/>
<path d="M440.605 176.318C440.605 176.318 440.91 182.422 442.741 182.422C444.571 182.422 443.962 185.169 441.52 186.083" stroke="#263238" stroke-miterlimit="10" stroke-linecap="round" stroke-linejoin="round"/>
<path d="M439.079 192.187C439.079 192.187 433.587 194.627 431.45 189.135" stroke="#263238" stroke-miterlimit="10" stroke-linecap="round" stroke-linejoin="round"/>
<path d="M440.355 327.292C440.355 327.292 409.263 300.018 377.082 290.746C344.899 281.474 307.807 285.837 275.626 277.109C243.444 268.382 224.898 256.382 224.898 256.382L223.261 285.291L439.264 343.656L587.083 302.746L601.811 272.746C601.811 272.746 583.811 282.019 551.629 289.655C519.446 297.292 483.446 297.292 463.264 304.927C443.081 312.564 440.355 327.292 440.355 327.292Z" fill="white" stroke="#263238" stroke-miterlimit="10" stroke-linecap="round" stroke-linejoin="round"/>
<path d="M219.989 262.928C219.989 262.928 255.99 284.746 337.262 292.383C390.76 297.409 440.355 327.293 440.355 327.293C440.355 327.293 470.354 306.02 512.901 304.384C555.447 302.747 603.994 285.838 603.994 285.838L594.722 304.929L435.992 336.021L216.716 278.748L219.989 262.928Z" fill="white" stroke="#263238" stroke-miterlimit="10" stroke-linecap="round" stroke-linejoin="round"/>
<path d="M213.987 269.473C213.987 269.473 256.673 290.496 311.08 294.564C369.444 298.927 438.718 327.292 438.718 327.292C438.718 327.292 475.264 307.655 515.628 307.655C555.992 307.655 593.083 298.927 604.537 295.655C604.537 295.655 601.265 304.383 607.265 313.655L438.172 349.656L212.897 284.2L213.987 269.473Z" fill="white" stroke="#263238" stroke-miterlimit="10" stroke-linecap="round" stroke-linejoin="round"/>
<path d="M215.084 282.431L431.081 336.564V344.201L449.627 344.747V336.019L612.174 310.383C612.174 310.383 619.265 308.746 613.265 316.929C607.265 325.11 502.535 416.203 502.535 416.203L386.353 428.203L210.169 389.475L211.22 285.415C211.24 283.405 213.135 281.943 215.084 282.431Z" fill="#00A1DE"/>
<mask id="mask6_1_4075" style="mask-type:luminance" maskUnits="userSpaceOnUse" x="210" y="282" width="406" height="147">
<path d="M215.084 282.431L431.081 336.564V344.201L449.627 344.747V336.019L612.174 310.383C612.174 310.383 619.265 308.746 613.265 316.929C607.265 325.11 502.535 416.203 502.535 416.203L386.353 428.203L210.169 389.475L211.22 285.415C211.24 283.405 213.135 281.943 215.084 282.431Z" fill="white"/>
</mask>
<g mask="url(#mask6_1_4075)">
<path opacity="0.3" d="M431.081 344.201V336.565L211.261 281.472L210.17 389.475L386.354 428.203L389.499 427.877L436.009 344.346L431.081 344.201Z" fill="black"/>
</g>
<path d="M215.084 282.431L431.081 336.564V344.201L449.627 344.747V336.019L612.174 310.383C612.174 310.383 619.265 308.746 613.265 316.929C607.265 325.11 502.535 416.203 502.535 416.203L386.353 428.203L210.169 389.475L211.22 285.415C211.24 283.405 213.135 281.943 215.084 282.431Z" stroke="#263238" stroke-miterlimit="10" stroke-linecap="round" stroke-linejoin="round"/>
<path d="M431.081 344.201L382.536 428.203L391.808 428.747L449.627 344.747L431.081 344.201Z" fill="#00A1DE" stroke="#263238" stroke-miterlimit="10" stroke-linecap="round" stroke-linejoin="round"/>
<path d="M593.101 313.782C593.101 313.782 607.587 316.498 604.57 326.157L613.265 316.929C613.265 316.929 617.244 311.972 615.434 311.066C613.624 310.161 593.101 313.782 593.101 313.782Z" fill="#263238"/>
<path d="M235.108 287.916C235.108 287.916 214.619 293.594 211.409 308.9L211.221 285.415C211.221 285.415 211.847 281.885 215.085 282.431C218.321 282.979 235.108 287.916 235.108 287.916Z" fill="#263238"/>
<path d="M210.372 382.29L220.664 392.092L210.17 389.475L210.372 382.29Z" fill="#263238"/>
<path d="M495.118 416.842L509.086 409.981L501.735 416.352L495.118 416.842Z" fill="#263238"/>
<path d="M490.216 245.206L529.526 292.328L519.628 293.891L477.487 258.315C477.487 258.315 488.415 251.223 490.216 245.206Z" fill="white" stroke="#263238" stroke-miterlimit="10" stroke-linecap="round" stroke-linejoin="round"/>
<path d="M315.913 276.559C315.913 276.559 313.932 274.176 313.437 276.294C312.942 278.413 308.484 285.828 311.951 286.358C315.419 286.888 317.401 278.413 317.401 278.413L315.913 276.559Z" fill="white" stroke="#263238" stroke-miterlimit="10" stroke-linecap="round" stroke-linejoin="round"/>
<path d="M320.615 276.266C320.615 276.266 318.634 273.883 318.139 276.001C317.644 278.12 313.186 285.535 316.653 286.065C320.121 286.595 322.103 278.12 322.103 278.12L320.615 276.266Z" fill="white" stroke="#263238" stroke-miterlimit="10" stroke-linecap="round" stroke-linejoin="round"/>
<path d="M325.334 276.097C325.334 276.097 322.983 273.452 322.394 275.802C321.807 278.153 316.517 286.381 320.632 286.969C324.746 287.557 327.096 278.154 327.096 278.154L325.334 276.097Z" fill="white" stroke="#263238" stroke-miterlimit="10" stroke-linecap="round" stroke-linejoin="round"/>
<path d="M329.448 276.979L337.381 284.619H327.978L329.448 276.979Z" fill="white" stroke="#263238" stroke-miterlimit="10" stroke-linecap="round" stroke-linejoin="round"/>
<path d="M329.448 276.979C329.448 276.979 327.098 274.334 326.509 276.684C325.921 279.035 320.632 287.264 324.746 287.851C328.86 288.439 331.211 279.035 331.211 279.035L329.448 276.979Z" fill="white" stroke="#263238" stroke-miterlimit="10" stroke-linecap="round" stroke-linejoin="round"/>
<path d="M540.247 283.836C540.247 283.836 541.829 281.17 542.652 283.186C543.474 285.2 549.042 291.823 545.7 292.89C542.358 293.958 539.071 285.9 539.071 285.9L540.247 283.836Z" fill="white" stroke="#263238" stroke-miterlimit="10" stroke-linecap="round" stroke-linejoin="round"/>
<path d="M535.557 284.284C535.557 284.284 537.139 281.619 537.962 283.635C538.784 285.649 544.351 292.272 541.01 293.34C537.668 294.408 534.381 286.35 534.381 286.35L535.557 284.284Z" fill="white" stroke="#263238" stroke-miterlimit="10" stroke-linecap="round" stroke-linejoin="round"/>
<path d="M530.872 284.859C530.872 284.859 532.778 281.878 533.728 284.107C534.678 286.336 541.193 293.632 537.222 294.857C533.251 296.084 529.454 287.166 529.454 287.166L530.872 284.859Z" fill="white" stroke="#263238" stroke-miterlimit="10" stroke-linecap="round" stroke-linejoin="round"/>
<path d="M526.947 286.375L520.312 295.167L529.597 293.69L526.947 286.375Z" fill="white" stroke="#263238" stroke-miterlimit="10" stroke-linecap="round" stroke-linejoin="round"/>
<path d="M526.947 286.376C526.947 286.376 528.853 283.395 529.803 285.624C530.753 287.853 537.268 295.149 533.297 296.374C529.326 297.601 525.529 288.683 525.529 288.683L526.947 286.376Z" fill="white" stroke="#263238" stroke-miterlimit="10" stroke-linecap="round" stroke-linejoin="round"/>
<path d="M259.709 411.32C242.354 410.339 241.558 409.543 240.577 392.188C239.596 409.543 238.799 410.339 221.445 411.32C238.799 412.301 239.596 413.098 240.577 430.452C241.558 413.098 242.354 412.301 259.709 411.32Z" fill="white"/>
<path d="M199.208 344.218C186.843 343.52 186.276 342.952 185.576 330.586C184.876 342.952 184.309 343.518 171.943 344.218C184.309 344.918 184.876 345.485 185.576 357.851C186.276 345.485 186.843 344.918 199.208 344.218Z" fill="white"/>
<path d="M544.613 370.619C532.248 369.919 531.681 369.352 530.981 356.986C530.281 369.352 529.714 369.919 517.349 370.619C529.714 371.317 530.281 371.886 530.981 384.251C531.681 371.886 532.248 371.319 544.613 370.619Z" fill="white"/>
<path d="M410.411 453.12C398.046 452.42 397.479 451.853 396.779 439.488C396.079 451.853 395.512 452.42 383.147 453.12C395.512 453.82 396.079 454.387 396.779 466.752C397.479 454.387 398.046 453.82 410.411 453.12Z" fill="white"/>
<path d="M443.868 410.977C431.503 410.277 430.936 409.71 430.236 397.345C429.536 409.71 428.969 410.277 416.604 410.977C428.969 411.677 429.536 412.244 430.236 424.609C430.936 412.242 431.503 411.675 443.868 410.977Z" fill="white"/>
<path d="M432.412 499.105C424.233 498.642 423.859 498.267 423.395 490.089C422.932 498.267 422.558 498.642 414.379 499.105C422.558 499.568 422.932 499.942 423.395 508.121C423.859 499.942 424.233 499.568 432.412 499.105Z" fill="white"/>
<path d="M478.827 444.104C470.649 443.64 470.274 443.266 469.811 435.087C469.348 443.266 468.974 443.64 460.795 444.104C468.974 444.567 469.348 444.941 469.811 453.12C470.274 444.941 470.649 444.567 478.827 444.104Z" fill="white"/>
<path d="M317.126 396.588C308.947 396.125 308.573 395.751 308.109 387.572C307.646 395.751 307.272 396.125 299.093 396.588C307.272 397.051 307.646 397.426 308.109 405.604C308.573 397.424 308.947 397.05 317.126 396.588Z" fill="white"/>
<path d="M170.823 407.588C162.645 407.124 162.27 406.75 161.807 398.571C161.344 406.75 160.969 407.124 152.791 407.588C160.969 408.051 161.344 408.425 161.807 416.604C162.27 408.425 162.645 408.051 170.823 407.588Z" fill="white"/>
</svg>
